<svg xmlns="http://www.w3.org/2000/svg" version="1.1" xmlns:xlink="http://www.w3.org/1999/xlink" xmlns:svgjs="http://svgjs.dev/svgjs" viewBox="0 0 800 800"><g fill="none" stroke-width="3" stroke="hsl(0, 0%, 0%)" stroke-linecap="square" transform="matrix(2,0,0,2,-400.00003242492676,-400.00003814697266)"><line x1="516" y1="400" x2="284" y2="400" transform="rotate(0, 400, 400)" opacity="0.68"></line><line x1="312" y1="400" x2="488" y2="400" transform="rotate(4, 400, 400)" opacity="0.38"></line><line x1="546" y1="400" x2="254" y2="400" transform="rotate(8, 400, 400)" opacity="0.53"></line><line x1="285" y1="400" x2="515" y2="400" transform="rotate(12, 400, 400)" opacity="0.18"></line><line x1="197.5" y1="400" x2="602.5" y2="400" transform="rotate(16, 400, 400)" opacity="0.91"></line><line x1="160.5" y1="400" x2="639.5" y2="400" transform="rotate(20, 400, 400)" opacity="0.09"></line><line x1="26.5" y1="400" x2="773.5" y2="400" transform="rotate(24, 400, 400)" opacity="0.50"></line><line x1="727" y1="400" x2="73" y2="400" transform="rotate(28, 400, 400)" opacity="0.80"></line><line x1="552" y1="400" x2="248" y2="400" transform="rotate(32, 400, 400)" opacity="0.87"></line><line x1="327.5" y1="400" x2="472.5" y2="400" transform="rotate(36, 400, 400)" opacity="0.10"></line><line x1="632.5" y1="400" x2="167.5" y2="400" transform="rotate(40, 400, 400)" opacity="0.95"></line><line x1="356" y1="400" x2="444" y2="400" transform="rotate(44, 400, 400)" opacity="0.09"></line><line x1="97" y1="400" x2="703" y2="400" transform="rotate(48, 400, 400)" opacity="0.70"></line><line x1="251" y1="400" x2="549" y2="400" transform="rotate(52, 400, 400)" opacity="0.28"></line><line x1="385.5" y1="400" x2="414.5" y2="400" transform="rotate(56, 400, 400)" opacity="0.47"></line><line x1="717" y1="400" x2="83" y2="400" transform="rotate(60, 400, 400)" opacity="0.50"></line><line x1="273.5" y1="400" x2="526.5" y2="400" transform="rotate(64, 400, 400)" opacity="0.55"></line><line x1="538.5" y1="400" x2="261.5" y2="400" transform="rotate(68, 400, 400)" opacity="0.57"></line><line x1="728" y1="400" x2="72" y2="400" transform="rotate(72, 400, 400)" opacity="0.57"></line><line x1="361" y1="400" x2="439" y2="400" transform="rotate(76, 400, 400)" opacity="0.70"></line><line x1="398" y1="400" x2="402" y2="400" transform="rotate(80, 400, 400)" opacity="0.62"></line><line x1="516.5" y1="400" x2="283.5" y2="400" transform="rotate(84, 400, 400)" opacity="0.49"></line><line x1="358.5" y1="400" x2="441.5" y2="400" transform="rotate(88, 400, 400)" opacity="0.61"></line><line x1="552.5" y1="400" x2="247.5" y2="400" transform="rotate(92, 400, 400)" opacity="0.39"></line><line x1="355.5" y1="400" x2="444.5" y2="400" transform="rotate(96, 400, 400)" opacity="0.69"></line><line x1="331.5" y1="400" x2="468.5" y2="400" transform="rotate(100, 400, 400)" opacity="0.50"></line><line x1="696.5" y1="400" x2="103.5" y2="400" transform="rotate(104, 400, 400)" opacity="0.45"></line><line x1="209" y1="400" x2="591" y2="400" transform="rotate(108, 400, 400)" opacity="0.78"></line><line x1="677" y1="400" x2="123" y2="400" transform="rotate(112, 400, 400)" opacity="0.41"></line><line x1="179.5" y1="400" x2="620.5" y2="400" transform="rotate(116, 400, 400)" opacity="0.90"></line><line x1="302.5" y1="400" x2="497.5" y2="400" transform="rotate(120, 400, 400)" opacity="0.62"></line><line x1="443" y1="400" x2="357" y2="400" transform="rotate(124, 400, 400)" opacity="0.10"></line><line x1="311" y1="400" x2="489" y2="400" transform="rotate(128, 400, 400)" opacity="0.73"></line><line x1="481.5" y1="400" x2="318.5" y2="400" transform="rotate(132, 400, 400)" opacity="0.88"></line><line x1="114" y1="400" x2="686" y2="400" transform="rotate(136, 400, 400)" opacity="0.53"></line><line x1="278" y1="400" x2="522" y2="400" transform="rotate(140, 400, 400)" opacity="0.64"></line><line x1="272" y1="400" x2="528" y2="400" transform="rotate(144, 400, 400)" opacity="0.82"></line><line x1="715.5" y1="400" x2="84.5" y2="400" transform="rotate(148, 400, 400)" opacity="0.95"></line><line x1="235.5" y1="400" x2="564.5" y2="400" transform="rotate(152, 400, 400)" opacity="0.32"></line><line x1="353" y1="400" x2="447" y2="400" transform="rotate(156, 400, 400)" opacity="0.51"></line><line x1="345.5" y1="400" x2="454.5" y2="400" transform="rotate(160, 400, 400)" opacity="0.62"></line><line x1="351.5" y1="400" x2="448.5" y2="400" transform="rotate(164, 400, 400)" opacity="0.12"></line><line x1="54" y1="400" x2="746" y2="400" transform="rotate(168, 400, 400)" opacity="0.71"></line><line x1="22.5" y1="400" x2="777.5" y2="400" transform="rotate(172, 400, 400)" opacity="0.39"></line><line x1="248.5" y1="400" x2="551.5" y2="400" transform="rotate(176, 400, 400)" opacity="0.63"></line><line x1="597" y1="400" x2="203" y2="400" transform="rotate(180, 400, 400)" opacity="0.64"></line><line x1="370.5" y1="400" x2="429.5" y2="400" transform="rotate(184, 400, 400)" opacity="0.30"></line><line x1="267.5" y1="400" x2="532.5" y2="400" transform="rotate(188, 400, 400)" opacity="0.53"></line><line x1="278.5" y1="400" x2="521.5" y2="400" transform="rotate(192, 400, 400)" opacity="0.21"></line><line x1="326.5" y1="400" x2="473.5" y2="400" transform="rotate(196, 400, 400)" opacity="0.52"></line><line x1="720.5" y1="400" x2="79.5" y2="400" transform="rotate(200, 400, 400)" opacity="0.33"></line><line x1="284.5" y1="400" x2="515.5" y2="400" transform="rotate(204, 400, 400)" opacity="0.59"></line><line x1="175.5" y1="400" x2="624.5" y2="400" transform="rotate(208, 400, 400)" opacity="0.57"></line><line x1="394" y1="400" x2="406" y2="400" transform="rotate(212, 400, 400)" opacity="0.19"></line><line x1="198" y1="400" x2="602" y2="400" transform="rotate(216, 400, 400)" opacity="0.48"></line><line x1="49" y1="400" x2="751" y2="400" transform="rotate(220, 400, 400)" opacity="0.08"></line><line x1="362" y1="400" x2="438" y2="400" transform="rotate(224, 400, 400)" opacity="0.35"></line><line x1="146" y1="400" x2="654" y2="400" transform="rotate(228, 400, 400)" opacity="0.30"></line><line x1="100.5" y1="400" x2="699.5" y2="400" transform="rotate(232, 400, 400)" opacity="0.42"></line><line x1="470" y1="400" x2="330" y2="400" transform="rotate(236, 400, 400)" opacity="0.21"></line><line x1="124" y1="400" x2="676" y2="400" transform="rotate(240, 400, 400)" opacity="0.26"></line><line x1="212.5" y1="400" x2="587.5" y2="400" transform="rotate(244, 400, 400)" opacity="0.33"></line><line x1="543" y1="400" x2="257" y2="400" transform="rotate(248, 400, 400)" opacity="0.95"></line><line x1="283.5" y1="400" x2="516.5" y2="400" transform="rotate(252, 400, 400)" opacity="0.38"></line><line x1="727" y1="400" x2="73" y2="400" transform="rotate(256, 400, 400)" opacity="0.59"></line><line x1="61.5" y1="400" x2="738.5" y2="400" transform="rotate(260, 400, 400)" opacity="0.24"></line><line x1="538.5" y1="400" x2="261.5" y2="400" transform="rotate(264, 400, 400)" opacity="0.83"></line><line x1="293.5" y1="400" x2="506.5" y2="400" transform="rotate(268, 400, 400)" opacity="0.57"></line><line x1="24" y1="400" x2="776" y2="400" transform="rotate(272, 400, 400)" opacity="0.50"></line><line x1="569" y1="400" x2="231" y2="400" transform="rotate(276, 400, 400)" opacity="0.29"></line><line x1="632" y1="400" x2="168" y2="400" transform="rotate(280, 400, 400)" opacity="0.85"></line><line x1="475.5" y1="400" x2="324.5" y2="400" transform="rotate(284, 400, 400)" opacity="0.40"></line><line x1="688.5" y1="400" x2="111.5" y2="400" transform="rotate(288, 400, 400)" opacity="0.74"></line><line x1="59" y1="400" x2="741" y2="400" transform="rotate(292, 400, 400)" opacity="0.53"></line><line x1="173.5" y1="400" x2="626.5" y2="400" transform="rotate(296, 400, 400)" opacity="0.59"></line><line x1="192" y1="400" x2="608" y2="400" transform="rotate(300, 400, 400)" opacity="0.93"></line><line x1="319.5" y1="400" x2="480.5" y2="400" transform="rotate(304, 400, 400)" opacity="0.66"></line><line x1="661.5" y1="400" x2="138.5" y2="400" transform="rotate(308, 400, 400)" opacity="0.64"></line><line x1="473" y1="400" x2="327" y2="400" transform="rotate(312, 400, 400)" opacity="0.60"></line><line x1="30.5" y1="400" x2="769.5" y2="400" transform="rotate(316, 400, 400)" opacity="0.36"></line><line x1="268.5" y1="400" x2="531.5" y2="400" transform="rotate(320, 400, 400)" opacity="0.80"></line><line x1="137.5" y1="400" x2="662.5" y2="400" transform="rotate(324, 400, 400)" opacity="0.10"></line><line x1="218.5" y1="400" x2="581.5" y2="400" transform="rotate(328, 400, 400)" opacity="0.36"></line><line x1="159.5" y1="400" x2="640.5" y2="400" transform="rotate(332, 400, 400)" opacity="0.26"></line><line x1="554.5" y1="400" x2="245.5" y2="400" transform="rotate(336, 400, 400)" opacity="0.25"></line><line x1="185.5" y1="400" x2="614.5" y2="400" transform="rotate(340, 400, 400)" opacity="0.19"></line><line x1="128" y1="400" x2="672" y2="400" transform="rotate(344, 400, 400)" opacity="0.25"></line><line x1="146.5" y1="400" x2="653.5" y2="400" transform="rotate(348, 400, 400)" opacity="0.87"></line></g></svg>